<svg width="638" height="205" viewBox="0 0 638 205" fill="none" xmlns="http://www.w3.org/2000/svg">
<path d="M68.7939 190C57.8416 190 47.745 187.347 38.504 182.042C29.4342 176.737 22.2468 169.636 16.9418 160.737C11.6368 151.667 8.98428 141.742 8.98428 130.96C8.98428 120.179 11.6368 110.339 16.9418 101.441C22.2468 92.3709 29.4342 85.1835 38.504 79.8785C47.745 74.5735 57.8416 71.921 68.7939 71.921H127.32V190H68.7939ZM69.0506 162.79C74.6978 162.79 79.9173 161.336 84.7089 158.427C89.5005 155.517 93.2653 151.667 96.0034 146.875C98.9126 141.913 100.367 136.608 100.367 130.96C100.367 125.142 98.9126 119.837 96.0034 115.045C93.2653 110.083 89.5005 106.232 84.7089 103.494C79.9173 100.585 74.6978 99.1305 69.0506 99.1305C63.4033 99.1305 58.1839 100.585 53.3923 103.494C48.6007 106.403 44.7502 110.254 41.8411 115.045C39.103 119.837 37.734 125.142 37.734 130.96C37.734 136.608 39.103 141.913 41.8411 146.875C44.7502 151.667 48.6007 155.517 53.3923 158.427C58.1839 161.336 63.4033 162.79 69.0506 162.79ZM267.884 10.3145V190H208.844C198.234 190 188.394 187.347 179.325 182.042C170.255 176.737 163.067 169.55 157.762 160.48C152.457 151.41 149.805 141.57 149.805 130.96C149.805 120.35 152.457 110.511 157.762 101.441C163.067 92.3709 170.255 85.1835 179.325 79.8785C188.394 74.5735 198.234 71.921 208.844 71.921H240.161V10.3145H267.884ZM209.614 162.79C215.262 162.79 220.481 161.336 225.273 158.427C230.064 155.517 233.829 151.667 236.567 146.875C239.476 141.913 240.931 136.608 240.931 130.96C240.931 125.142 239.476 119.837 236.567 115.045C233.829 110.083 230.064 106.232 225.273 103.494C220.481 100.585 215.262 99.1305 209.614 99.1305C204.138 99.1305 199.004 100.585 194.213 103.494C189.421 106.232 185.656 110.083 182.918 115.045C180.18 119.837 178.811 125.142 178.811 130.96C178.811 136.608 180.18 141.913 182.918 146.875C185.656 151.667 189.421 155.517 194.213 158.427C199.004 161.336 204.138 162.79 209.614 162.79ZM454.556 71.921H573.662C583.245 71.921 591.716 73.8889 599.075 77.8249C606.604 81.5897 612.423 86.9803 616.53 93.9966C620.637 101.013 622.69 109.142 622.69 118.382V190H594.968V118.382C594.968 112.393 592.914 107.345 588.807 103.238C584.7 99.1305 579.652 97.0769 573.662 97.0769C568.015 97.0769 563.052 99.1305 558.774 103.238C554.667 107.345 552.613 112.393 552.613 118.382V190H524.634V118.382C524.634 112.393 522.58 107.345 518.473 103.238C514.366 99.1305 509.403 97.0769 503.585 97.0769C497.766 97.0769 492.718 99.1305 488.44 103.238C484.333 107.345 482.279 112.393 482.279 118.382V190H454.556V71.921Z" fill="#F1F1F1"/>
<g clip-path="url(#clip0_18306_34203)">
<mask id="mask0_18306_34203" style="mask-type:luminance" maskUnits="userSpaceOnUse" x="293" y="70" width="142" height="127">
<path d="M434.756 70H293V196.321H434.756V70Z" fill="white"/>
</mask>
<g mask="url(#mask0_18306_34203)">
<path d="M392.514 178.57L387.141 159.403L383.108 145.108L373.203 109.767L333.123 108.292L324.938 108.014C322.849 108.014 320.892 108.25 319.053 108.668C311.802 110.296 306.389 114.681 302.79 119.038C301.029 121.181 299.729 123.311 298.836 125.106C297.877 127.041 297.075 129.031 296.392 131.064L295.906 132.595C292.083 145.554 293.712 160.336 301.515 172.682C305.929 179.697 312.143 185.279 319.119 189.079C326.948 193.38 335.763 195.412 344.052 194.661C344.118 194.661 344.17 194.661 344.21 194.661L347.941 194.118L394.97 187.367L392.487 178.542L392.514 178.57ZM331.572 123.798C340.794 119.385 352.604 123.506 359.225 133.987C363.455 140.71 364.611 148.532 362.929 155.228C361.879 159.473 359.672 163.273 356.401 166.029C356.02 166.349 355.626 166.669 355.192 166.975C345.721 173.684 332.177 169.815 324.912 158.331C320.156 150.787 319.289 141.823 321.943 134.669C323.349 130.911 325.687 127.654 328.945 125.357C329.799 124.744 330.653 124.243 331.559 123.812H331.572V123.798Z" fill="#004B7A"/>
<path d="M385.632 140.876C384.922 142.365 384.081 143.785 383.122 145.108L373.204 109.767L333.137 108.305C334.963 103.197 338.129 98.7567 342.53 95.6388C355.088 86.7305 373.073 91.8667 382.702 107.108C384.541 110.017 385.947 113.108 386.919 116.239C389.585 124.772 389.06 133.708 385.632 140.89V140.876Z" fill="#004B7A"/>
<path d="M433.541 172.697L394.998 187.396L392.515 178.572L433.541 172.697Z" fill="#004B7A"/>
<path d="M302.789 119.064C301.029 121.208 299.715 123.337 298.835 125.119C297.889 127.054 297.075 129.044 296.392 131.09L305.272 102.041C303.669 107.539 302.842 113.274 302.789 119.064Z" fill="#004B7A"/>
<path d="M405.324 72.2683L397.849 85.3385L363.654 77.8499C353.578 75.1357 343.029 76.5415 334.346 82.7077C330.799 85.1993 327.843 88.3033 325.478 91.8527C324.795 92.8687 324.165 93.8987 323.587 94.9706C321.34 99.1463 319.83 103.795 319.068 108.695L319.041 108.806C318.963 109.335 318.884 109.892 318.831 110.435C318.766 110.908 318.713 111.381 318.674 111.841C318.634 112.244 318.595 112.662 318.582 113.079C318.529 113.678 318.516 114.263 318.503 114.861C318.503 115.321 318.49 115.793 318.503 116.267C318.503 116.698 318.503 117.13 318.529 117.561C318.529 118.048 318.555 118.536 318.582 119.023C318.608 119.482 318.634 119.942 318.687 120.401C318.687 120.665 318.726 120.944 318.752 121.222C318.818 121.821 318.884 122.433 318.963 123.032L302.896 123.282C302.818 121.876 302.778 120.47 302.804 119.065C302.844 113.274 303.685 107.539 305.287 102.041L305.734 100.552C306.654 97.6569 307.783 94.8314 309.123 92.1171C313.196 83.8491 324.401 70.0969 342.885 69.9995L405.324 72.2683Z" fill="#6BC2E7"/>
<path d="M413.652 146.54L387.142 159.401L379.194 163.243C372.127 166.807 364.179 167.628 356.389 165.999C345.131 163.647 334.227 156.158 326.818 144.424C324.834 141.279 323.192 137.98 321.931 134.625C320.473 130.811 319.488 126.886 318.949 123.003L331.442 122.808C331.482 123.128 331.508 123.462 331.547 123.782C332.231 129.086 334.096 134.458 337.183 139.358C343.476 149.324 353.341 154.975 362.918 155.198C367.989 155.309 373.007 153.903 377.342 150.827C379.575 149.241 381.506 147.292 383.096 145.107C384.055 143.784 384.909 142.365 385.605 140.875L413.626 146.54H413.652Z" fill="#6BC2E7"/>
<path d="M413.651 146.542L405.782 116.045L386.918 116.227C389.585 124.759 389.059 133.695 385.63 140.877L413.651 146.542Z" fill="#6BC2E7"/>
<path d="M397.849 85.3398L363.655 77.8513C353.578 75.137 343.03 76.5428 334.346 82.7091C325.873 88.6943 320.684 98.1176 319.055 108.696C318.333 113.317 318.293 118.161 318.963 123.033L331.456 122.838C330.957 117.771 331.535 112.789 333.138 108.32C334.964 103.212 338.129 98.7718 342.53 95.6539C355.089 86.7456 373.073 91.8818 382.703 107.123C383.386 108.209 384.016 109.322 384.568 110.436C385.527 112.343 386.315 114.278 386.92 116.241L405.784 116.059L397.862 85.3537L397.849 85.3398Z" fill="#0087DB"/>
<path d="M433.543 172.696L413.654 146.542L405.785 116.045L397.85 85.3391L405.325 72.269L433.543 172.696Z" fill="#6BC2E7"/>
<path d="M433.543 172.697L392.53 178.571L372.693 181.424C372.693 181.424 372.641 181.424 372.628 181.438L367.662 182.148C367.662 182.148 367.583 182.148 367.544 182.148C367.531 182.148 367.504 182.148 367.491 182.148C367.478 182.148 367.478 182.148 367.452 182.148C367.412 182.148 367.386 182.148 367.36 182.148C347.182 183.804 324.692 172.822 312.593 153.669C306.629 144.232 303.463 133.723 302.885 123.242L318.951 122.991C319.135 124.369 319.384 125.719 319.7 127.111C319.805 127.571 319.91 128.03 320.015 128.461C320.527 130.536 321.171 132.595 321.933 134.614C322.275 135.532 322.642 136.451 323.063 137.356C323.207 137.69 323.352 138.024 323.523 138.358C323.917 139.221 324.35 140.098 324.81 140.975C324.994 141.337 325.191 141.685 325.401 142.033C325.835 142.826 326.321 143.634 326.82 144.413C334.229 156.147 345.132 163.635 356.391 165.988C358.992 166.531 361.606 166.795 364.194 166.781C364.995 166.781 365.783 166.767 366.585 166.698C370.933 166.377 375.202 165.25 379.183 163.232L387.13 159.39L413.64 146.529L433.53 172.683L433.543 172.697Z" fill="#0087DB"/>
</g>
</g>
<defs>
<clipPath id="clip0_18306_34203">
<rect width="141" height="130" fill="white" transform="translate(293 67)"/>
</clipPath>
</defs>
</svg>
