<svg width="1592" height="1419" viewBox="0 0 1592 1419" fill="none" xmlns="http://www.w3.org/2000/svg">
<mask id="mask0_18306_34189" style="mask-type:luminance" maskUnits="userSpaceOnUse" x="0" y="0" width="1592" height="1419">
<path d="M1592 0.524414H0.209473V1419H1592V0.524414Z" fill="white"/>
</mask>
<g mask="url(#mask0_18306_34189)">
<path d="M1117.66 1219.67L1057.33 1004.45L1012.04 843.928L900.815 447.082L450.752 430.515L358.849 427.389C335.394 427.389 313.415 430.046 292.763 434.733C211.335 453.02 150.56 502.256 110.141 551.179C90.3739 575.249 75.77 599.16 65.7392 619.326C54.9706 641.048 45.9722 663.399 38.3017 686.222L32.8436 703.412C-10.0829 848.929 8.20887 1014.92 95.8319 1153.56C145.397 1232.33 215.171 1295.01 293.501 1337.68C381.419 1385.98 480.399 1408.8 573.483 1400.36C574.221 1400.36 574.807 1400.36 575.252 1400.36L617.145 1394.26L1145.25 1318.45L1117.36 1219.36L1117.66 1219.67ZM433.343 604.634C536.898 555.083 669.513 601.349 743.861 719.042C791.361 794.537 804.341 882.377 785.457 957.558C773.659 1005.23 748.876 1047.9 712.144 1078.85C707.867 1082.44 703.442 1086.04 698.574 1089.48C592.216 1164.81 440.131 1121.36 358.554 992.412C305.154 907.698 295.418 807.041 325.216 726.704C341 684.502 367.257 647.928 403.841 622.138C413.429 615.258 423.016 609.634 433.197 604.788H433.343V604.634Z" fill="#002B7B"/>
<path d="M1040.38 796.404C1032.41 813.126 1022.97 829.069 1012.2 843.917L900.827 447.07L450.911 430.662C471.415 373.298 506.966 323.438 556.38 288.427C697.404 188.395 899.352 246.069 1007.48 417.218C1028.13 449.886 1043.92 484.585 1054.83 519.753C1084.78 615.565 1078.88 715.908 1040.38 796.559V796.404Z" fill="#002B7B"/>
<path d="M1578.36 1153.72L1145.55 1318.78L1117.67 1219.69L1578.36 1153.72Z" fill="#002B7B"/>
<path d="M110.138 551.476C90.3706 575.546 75.6192 599.461 65.7359 619.468C55.1148 641.195 45.9689 663.545 38.2983 686.519L138.018 360.321C120.021 422.062 110.727 486.455 110.138 551.476Z" fill="#002B7B"/>
<path d="M1261.5 25.9984L1177.57 172.765L793.589 88.6749C680.448 58.1964 561.995 73.9826 464.486 143.223C424.658 171.201 391.468 206.056 364.916 245.913C357.245 257.323 350.164 268.889 343.674 280.924C318.449 327.814 301.485 380.018 292.929 435.038L292.634 436.285C291.749 442.227 290.864 448.479 290.274 454.572C289.536 459.886 288.946 465.201 288.503 470.361C288.061 474.893 287.618 479.584 287.471 484.27C286.881 490.991 286.733 497.557 286.586 504.277C286.586 509.437 286.438 514.747 286.586 520.062C286.586 524.908 286.586 529.753 286.881 534.599C286.881 540.068 287.176 545.542 287.471 551.011C287.766 556.167 288.061 561.326 288.651 566.486C288.651 569.453 289.093 572.579 289.388 575.705C290.126 582.425 290.864 589.305 291.749 596.026L111.34 598.838C110.454 583.053 110.012 567.264 110.307 551.48C110.749 486.459 120.19 422.061 138.187 360.325L143.203 343.601C153.528 311.09 166.214 279.361 181.261 248.882C226.99 156.04 352.819 1.61559 560.373 0.521484L1261.5 25.9984Z" fill="#6BC2E7"/>
<path d="M1355.02 860.007L1057.34 1004.43L968.094 1047.57C888.731 1087.58 799.484 1096.8 712.01 1078.51C585.591 1052.1 463.153 968.008 379.956 836.246C357.682 800.923 339.242 763.881 325.081 726.211C308.707 683.385 297.644 639.308 291.596 595.7L431.881 593.516C432.325 597.11 432.618 600.86 433.062 604.454C440.734 664.006 461.678 724.336 496.345 779.356C567.005 891.266 677.788 954.722 785.323 957.224C842.266 958.475 898.615 942.687 947.296 908.147C972.372 890.328 994.058 868.447 1011.91 843.908C1022.67 829.057 1032.26 813.118 1040.08 796.391L1354.73 860.007H1355.02Z" fill="#6BC2E7"/>
<path d="M1355.02 860.027L1266.65 517.572L1054.83 519.606C1084.77 615.418 1078.87 715.761 1040.37 796.412L1355.02 860.027Z" fill="#6BC2E7"/>
<path d="M1177.58 172.776L793.598 88.6865C680.453 58.208 561.999 73.9942 464.495 143.235C369.347 210.444 311.079 316.26 292.787 435.046C284.674 486.94 284.231 541.332 291.755 596.038L432.041 593.849C426.435 536.955 432.925 481.002 450.92 430.828C471.425 373.465 506.975 323.606 556.394 288.595C697.418 188.562 899.365 246.237 1007.49 417.386C1015.16 429.577 1022.24 442.081 1028.44 454.584C1039.21 475.997 1048.06 497.724 1054.84 519.764L1266.67 517.731L1177.72 172.932L1177.58 172.776Z" fill="#0171B7"/>
<path d="M1578.38 1153.71L1355.04 860.023L1266.68 517.569L1177.58 172.771L1261.52 26.0049L1578.38 1153.71Z" fill="#6BC2E7"/>
<path d="M1578.38 1153.71L1117.84 1219.67L895.096 1251.71C895.096 1251.71 894.505 1251.71 894.358 1251.87L838.597 1259.84C838.597 1259.84 837.713 1259.84 837.268 1259.84C837.122 1259.84 836.829 1259.84 836.678 1259.84C836.531 1259.84 836.531 1259.84 836.238 1259.84C835.794 1259.84 835.5 1259.84 835.203 1259.84C608.623 1278.44 356.079 1155.12 220.219 940.054C153.248 834.082 117.697 716.075 111.207 598.382L291.616 595.565C293.681 611.04 296.484 626.201 300.024 641.831C301.204 646.991 302.384 652.146 303.565 656.992C309.318 680.284 316.546 703.412 325.101 726.076C328.937 736.391 333.067 746.711 337.788 756.867C339.41 760.62 341.033 764.37 342.951 768.124C347.376 777.811 352.244 787.662 357.407 797.508C359.472 801.571 361.685 805.48 364.045 809.384C368.913 818.293 374.371 827.361 379.977 836.111C463.175 967.873 585.609 1051.96 712.032 1078.38C741.239 1084.47 770.592 1087.45 799.653 1087.29C808.652 1087.29 817.501 1087.13 826.501 1086.35C875.328 1082.75 923.268 1070.1 967.965 1047.43L1057.21 1004.29L1354.9 859.872L1578.23 1153.56L1578.38 1153.71Z" fill="#0171B7"/>
</g>
</svg>
